<?xml version="1.0" encoding="utf-8"?>
<!-- Generator: Adobe Illustrator 16.0.0, SVG Export Plug-In . SVG Version: 6.00 Build 0)  -->
<!DOCTYPE svg PUBLIC "-//W3C//DTD SVG 1.1//EN" "http://www.w3.org/Graphics/SVG/1.1/DTD/svg11.dtd">
<svg version="1.1" id="Layer_1" xmlns="http://www.w3.org/2000/svg" xmlns:xlink="http://www.w3.org/1999/xlink" x="0px" y="0px"
	 width="1024px" height="1024px" viewBox="0 0 1024 1024" xml:space="preserve">
<g>	
	<path fill="#000" d="M744.89,584.542l-0.042-38.367l0.042-44.35v-39.033c0-20.559-17.775-36.892-38.351-36.892
		c-20.558,0-38.324,16.983-38.324,37.583v38.884v17.441c0,7.883-6.4,14.309-14.309,14.309c-7.9,0-14.309-6.426-14.309-14.309
		l0.017-44.351v-56.574c0-20.559-17.75-36.926-38.325-36.926c-20.558,0-38.324,17.025-38.324,37.617v35.041v43.809
		c0,7.9-6.4,14.325-14.309,14.325c-7.9,0-14.309-6.425-14.309-14.325l0.042-44.35V384.35c0-20.6-17.775-36.945-38.325-36.945
		c-20.583,0-38.35,17.021-38.35,37.596v69.616v17.442c0,7.883-6.4,14.325-14.309,14.325c-7.9,0-14.309-6.442-14.309-14.325
		l0.042-44.351V192.596c0-20.538-17.775-36.904-38.325-36.904c-20.583,0-38.35,17.021-38.35,37.596l-0.048,385.915
		c0,7.908-5.261,14.318-13.169,14.318c-3.517,0-6.726-1.267-9.226-3.383l-54.191-66.346c-9.6-18.217-32.925-24.392-51.134-14.809
		c-18.191,9.616-25.982,32.917-16.383,51.134c0,0,135.858,225.975,158.517,255.883c63.2,83.421,159.342,96.367,237.925,73.425
		c78.25-22.85,114.033-96.633,127.917-172.5C745.098,649.017,744.89,584.542,744.89,584.542z"/>
</g>
</svg>
